<?xml version="1.0" encoding="UTF-8"?>
<svg xmlns="http://www.w3.org/2000/svg" height="16px" viewBox="0 0 16 16" width="16px"><path d="m 12.988281 0.015625 c -0.324219 0.0078125 -0.625 0.171875 -0.808593 0.445313 c -1.433594 2.140624 -4.972657 3.269531 -7.128907 3.503906 c -0.433593 0.042968 -1.335937 0.050781 -1.890625 0.050781 h -1.148437 c -1.09375 0 -2.0000002 0.90625 -2.0000002 2 v 3 c 0 1.09375 0.9023432 2 1.9960932 2.003906 l 1.148438 0.003907 c 0.054688 0 0.136719 0.003906 0.195312 0.003906 l 0.679688 3.199218 c 0.058594 0.257813 0.214844 0.484376 0.4375 0.628907 s 0.492188 0.195312 0.75 0.140625 c 0.261719 -0.058594 0.488281 -0.214844 0.632812 -0.4375 c 0.144532 -0.222656 0.195313 -0.492188 0.136719 -0.75 l -0.570312 -2.679688 c 2.171875 0.308594 5.40625 1.417969 6.761719 3.445313 c 0.246093 0.363281 0.703124 0.523437 1.121093 0.398437 c 0.421875 -0.128906 0.710938 -0.515625 0.710938 -0.957031 v -4.84375 l 1.734375 -0.695313 c 0.160156 -0.0625 0.265625 -0.21875 0.265625 -0.394531 v -1.132812 c 0 -0.171875 -0.105469 -0.328125 -0.265625 -0.390625 l -1.734375 -0.695313 v -4.847656 c 0 -0.441406 -0.289063 -0.828125 -0.710938 -0.9570312 c -0.101562 -0.03125 -0.207031 -0.046875 -0.3125 -0.0429688 z m -0.976562 3.476563 v 8.054687 c -2.105469 -1.601563 -4.835938 -2.25 -6.746094 -2.457031 c -0.078125 -0.007813 -0.167969 -0.011719 -0.253906 -0.015625 v -3.101563 c 0.085937 -0.007812 0.175781 -0.011718 0.253906 -0.019531 c 1.910156 -0.207031 4.640625 -0.863281 6.746094 -2.460937 z m -8 2.515624 v 3.023438 c -0.308594 -0.003906 -0.613281 -0.003906 -0.847657 -0.007812 l -1.148437 -0.003907 c -0.015625 0 -0.003906 0.011719 -0.003906 -0.003906 v -3 h 1.148437 c 0.234375 0 0.542969 -0.003906 0.851563 -0.007813 z m 0 0" fill="#222222"/></svg>
