<?xml version="1.0" encoding="UTF-8"?>
<svg xmlns="http://www.w3.org/2000/svg" height="16px" viewBox="0 0 16 16" width="16px"><path d="m 10 3 c -1.5625 0.003906 -2.980469 0.914062 -3.632812 2.332031 c -0.421876 -0.214843 -0.890626 -0.332031 -1.367188 -0.332031 c -1.65625 0 -3 1.34375 -3 3 c 0 0.347656 0.0625 0.695312 0.179688 1.023438 c -1.246094 0.160156 -2.179688 1.21875 -2.179688 2.476562 c 0 1.378906 1.117188 2.5 2.5 2.5 h 10.5 c 1.65625 0 3 -1.34375 3 -3 c 0 -1.332031 -0.882812 -2.503906 -2.164062 -2.875 c 0.109374 -0.367188 0.164062 -0.746094 0.164062 -1.125 c 0 -2.210938 -1.792969 -4 -4 -4 z m 0 0" fill="#222222"/></svg>
