<?xml version="1.0" encoding="UTF-8"?>
<svg xmlns="http://www.w3.org/2000/svg" height="16px" viewBox="0 0 16 16" width="16px"><path d="m 3 16 h 10 c 0.550781 0 1 -0.449219 1 -1 s -0.449219 -1 -1 -1 h -10 c -0.550781 0 -1 0.449219 -1 1 s 0.449219 1 1 1 z m 6 -1 v -7 c 0 -4.15625 -3.042969 -6 -7 -6 c -0.550781 0 -1 0.449219 -1 1 c 0 4.851562 3.28125 7.554688 7.257812 6.496094 c 0.53125 -0.140625 0.851563 -0.6875 0.707032 -1.222656 c -0.140625 -0.53125 -0.6875 -0.851563 -1.222656 -0.707032 c -1.382813 0.367188 -2.484376 0.101563 -3.316407 -0.632812 c -0.828125 -0.730469 -1.425781 -2.027344 -1.425781 -3.933594 l -1 1 c 1.605469 0 2.886719 0.355469 3.703125 0.980469 c 0.410156 0.316406 0.71875 0.691406 0.941406 1.175781 c 0.222657 0.488281 0.355469 1.085938 0.355469 1.84375 v 7 c 0 0.550781 0.449219 1 1 1 s 1 -0.449219 1 -1 z m 1 -8.5 v -0.53125 c 0 -0.753906 0.132812 -1.351562 0.355469 -1.835938 c 0.21875 -0.480468 0.527343 -0.851562 0.9375 -1.164062 c 0.816406 -0.617188 2.097656 -0.96875 3.707031 -0.96875 l -1 -1 c 0 1.992188 -0.386719 3.183594 -1.082031 3.886719 c -0.699219 0.707031 -1.882813 1.113281 -3.917969 1.113281 c -0.550781 0 -1 0.449219 -1 1 s 0.449219 1 1 1 c 4.910156 0 7 -2.210938 7 -7 c 0 -0.550781 -0.449219 -1 -1 -1 c -3.953125 0 -7 1.8125 -7 5.96875 v 0.53125 c 0 0.554688 0.449219 1 1 1 s 1 -0.445312 1 -1 z m 0 0" fill="#222222"/></svg>
