<?xml version="1.0" encoding="UTF-8"?>
<svg xmlns="http://www.w3.org/2000/svg" height="16px" viewBox="0 0 16 16" width="16px"><path d="m 3.03125 1 c -1.667969 0 -3.03125 1.363281 -3.03125 3.03125 v 7.9375 c 0 1.667969 1.363281 3.03125 3.03125 3.03125 h 9 c 1.667969 0 3.03125 -1.363281 3.03125 -3.03125 v -7.9375 c 0 -1.667969 -1.363281 -3.03125 -3.03125 -3.03125 z m 4 1 h 1 v 2 h -1 z m -5.03125 3 h 4.933594 v 2 h -4.933594 z m 6.03125 0 h 5.03125 v 2 h -5.03125 z m -6.03125 3 h 4.933594 v 2 h -4.933594 z m 6.03125 0 h 5.03125 v 2 h -5.03125 z m -6.03125 3 h 4.933594 v 2 h -3.902344 c -0.597656 0 -1.03125 -0.433594 -1.03125 -1.03125 z m 6.03125 0 h 5.03125 v 0.96875 c 0 0.597656 -0.433594 1.03125 -1.03125 1.03125 h -4 z m 0 0" fill="#222222"/></svg>
