<?xml version="1.0" encoding="UTF-8"?>
<svg height="16px" viewBox="0 0 16 16" width="16px" xmlns="http://www.w3.org/2000/svg">
    <g fill="#241f31">
        <path d="m 12.5 3 c -0.550781 0 -1 0.449219 -1 1 s 0.449219 1 1 1 c 0.289062 0 0.5 0.210938 0.5 0.5 c 0 0.550781 0.449219 1 1 1 s 1 -0.449219 1 -1 c 0 -1.367188 -1.132812 -2.5 -2.5 -2.5 z m 0 0"/>
        <path d="m 2 3 c -0.550781 0 -1 0.449219 -1 1 v 11 c 0 0.550781 0.449219 1 1 1 s 1 -0.449219 1 -1 v -11 c 0 -0.550781 -0.449219 -1 -1 -1 z m 10 6 c -0.550781 0 -1 0.449219 -1 1 v 5 c 0 0.550781 0.449219 1 1 1 s 1 -0.449219 1 -1 v -5 c 0 -0.550781 -0.449219 -1 -1 -1 z m 0 0"/>
        <path d="m 5 0 c -2.199219 0 -4 1.800781 -4 4 c 0 0.550781 0.449219 1 1 1 s 1 -0.449219 1 -1 c 0 -0.722656 0.4375 -1.238281 1 -1.589844 v 1.589844 c 0 0.550781 0.449219 1 1 1 s 1 -0.449219 1 -1 v -3 c 0 -0.550781 -0.449219 -1 -1 -1 z m 0 0"/>
        <path d="m 10 0 c -2.199219 0 -4 1.800781 -4 4 c 0 0.550781 0.449219 1 1 1 s 1 -0.449219 1 -1 c 0 -0.722656 0.4375 -1.238281 1 -1.589844 v 1.589844 c 0 0.550781 0.449219 1 1 1 s 1 -0.449219 1 -1 v -3 c 0 -0.550781 -0.449219 -1 -1 -1 z m 0 0"/>
        <path d="m 5 3 c -0.550781 0 -1 0.449219 -1 1 s 0.449219 1 1 1 h 2 c 0.550781 0 1 -0.449219 1 -1 s -0.449219 -1 -1 -1 z m 0 0"/>
        <path d="m 10.007812 3 c -0.554687 -0.003906 -1.003906 0.441406 -1.007812 0.992188 c -0.003906 0.554687 0.441406 1.003906 0.992188 1.007812 l 2.527343 0.015625 c 0.550781 0.003906 1.003907 -0.441406 1.003907 -0.996094 c 0.003906 -0.550781 -0.441407 -1 -0.992188 -1.003906 z m 0 0"/>
        <path d="m 14.019531 4.476562 c -0.550781 -0.003906 -1 0.441407 -1.003906 0.992188 l -0.015625 3.527344 c -0.003906 0.550781 0.445312 1 0.996094 1.003906 c 0.550781 0.003906 1 -0.445312 1.003906 -0.996094 l 0.015625 -3.523437 c 0.003906 -0.554688 -0.445313 -1.003907 -0.996094 -1.003907 z m 0 0"/>
        <path d="m 16 8 v 2 c -3.535156 0.214844 -4.234375 2.445312 -5.648438 3.085938 c -0.5 0.226562 -1.425781 0.164062 -1.976562 0.164062 h -0.375 c -1.105469 0 -2 -0.894531 -2 -2 v -3.25"/>
    </g>
</svg>
