<?xml version="1.0" encoding="UTF-8"?>
<svg height="128px" viewBox="0 0 128 128" width="128px" xmlns="http://www.w3.org/2000/svg" xmlns:xlink="http://www.w3.org/1999/xlink">
    <filter id="a" height="100%" width="100%" x="0%" y="0%">
        <feColorMatrix color-interpolation-filters="sRGB" values="0 0 0 0 1 0 0 0 0 1 0 0 0 0 1 0 0 0 1 0"/>
    </filter>
    <linearGradient id="b" gradientUnits="userSpaceOnUse" x1="48" x2="48" y1="88" y2="48">
        <stop offset="0" stop-color="#b6d1f2"/>
        <stop offset="1" stop-color="#e9eef4"/>
    </linearGradient>
    <clipPath id="c">
        <rect height="128" width="128"/>
    </clipPath>
    <clipPath id="d">
        <rect height="128" width="128"/>
    </clipPath>
    <mask id="e">
        <g filter="url(#a)">
            <g clip-path="url(#d)" filter="url(#a)">
                <g clip-path="url(#c)">
                    <path d="m 2 66 h 24 v 12 h -24 z m 0 0" fill="#99c1f1"/>
                    <path d="m 12.324219 56 h 3.351562 c 5.703125 0 10.324219 4.621094 10.324219 10.324219 v 1.351562 c 0 5.703125 -4.621094 10.324219 -10.324219 10.324219 h -3.351562 c -5.703125 0 -10.324219 -4.621094 -10.324219 -10.324219 v -1.351562 c 0 -5.703125 4.621094 -10.324219 10.324219 -10.324219 z m 0 0" fill="#99c1f1"/>
                    <path d="m 82 101 h 8 v 23 h -8 z m 0 0" fill="#5e5c64"/>
                    <path d="m 100 101 h 8 v 23 h -8 z m 0 0" fill="#5e5c64"/>
                    <path d="m 20 101 h 8 v 23 h -8 z m 0 0" fill="#5e5c64"/>
                    <path d="m 38 101 h 8 v 23 h -8 z m 0 0" fill="#5e5c64"/>
                    <path d="m 40.324219 80 h 3.351562 c 5.703125 0 10.324219 4.621094 10.324219 10.324219 v 17.351562 c 0 5.703125 -4.621094 10.324219 -10.324219 10.324219 h -3.351562 c -5.703125 0 -10.324219 -4.621094 -10.324219 -10.324219 v -17.351562 c 0 -5.703125 4.621094 -10.324219 10.324219 -10.324219 z m 0 0" fill="#6b9bd2"/>
                    <path d="m 102.324219 80 h 3.351562 c 5.703125 0 10.324219 4.621094 10.324219 10.324219 v 17.351562 c 0 5.703125 -4.621094 10.324219 -10.324219 10.324219 h -3.351562 c -5.703125 0 -10.324219 -4.621094 -10.324219 -10.324219 v -17.351562 c 0 -5.703125 4.621094 -10.324219 10.324219 -10.324219 z m 0 0" fill="#6b9bd2"/>
                    <path d="m 40.324219 76 h 3.351562 c 5.703125 0 10.324219 4.621094 10.324219 10.324219 v 17.351562 c 0 5.703125 -4.621094 10.324219 -10.324219 10.324219 h -3.351562 c -5.703125 0 -10.324219 -4.621094 -10.324219 -10.324219 v -17.351562 c 0 -5.703125 4.621094 -10.324219 10.324219 -10.324219 z m 0 0" fill="#82adde"/>
                    <path d="m 102.324219 76 h 3.351562 c 5.703125 0 10.324219 4.621094 10.324219 10.324219 v 17.351562 c 0 5.703125 -4.621094 10.324219 -10.324219 10.324219 h -3.351562 c -5.703125 0 -10.324219 -4.621094 -10.324219 -10.324219 v -17.351562 c 0 -5.703125 4.621094 -10.324219 10.324219 -10.324219 z m 0 0" fill="#82adde"/>
                    <path d="m 22.324219 80 h 3.351562 c 5.703125 0 10.324219 4.621094 10.324219 10.324219 v 17.351562 c 0 5.703125 -4.621094 10.324219 -10.324219 10.324219 h -3.351562 c -5.703125 0 -10.324219 -4.621094 -10.324219 -10.324219 v -17.351562 c 0 -5.703125 4.621094 -10.324219 10.324219 -10.324219 z m 0 0" fill="#99c1f1"/>
                    <path d="m 84.324219 80 h 3.351562 c 5.703125 0 10.324219 4.621094 10.324219 10.324219 v 17.351562 c 0 5.703125 -4.621094 10.324219 -10.324219 10.324219 h -3.351562 c -5.703125 0 -10.324219 -4.621094 -10.324219 -10.324219 v -17.351562 c 0 -5.703125 4.621094 -10.324219 10.324219 -10.324219 z m 0 0" fill="#99c1f1"/>
                    <path d="m 28 58 h 72 c 8.835938 0 16 7.164062 16 16 v 18 c 0 8.835938 -7.164062 16 -16 16 h -72 c -8.835938 0 -16 -7.164062 -16 -16 v -18 c 0 -8.835938 7.164062 -16 16 -16 z m 0 0" fill="#99c1f1"/>
                    <path d="m 22.324219 76 h 3.351562 c 5.703125 0 10.324219 4.621094 10.324219 10.324219 v 17.351562 c 0 5.703125 -4.621094 10.324219 -10.324219 10.324219 h -3.351562 c -5.703125 0 -10.324219 -4.621094 -10.324219 -10.324219 v -17.351562 c 0 -5.703125 4.621094 -10.324219 10.324219 -10.324219 z m 0 0" fill="#b6d1f2"/>
                    <path d="m 84.324219 76 h 3.351562 c 5.703125 0 10.324219 4.621094 10.324219 10.324219 v 17.351562 c 0 5.703125 -4.621094 10.324219 -10.324219 10.324219 h -3.351562 c -5.703125 0 -10.324219 -4.621094 -10.324219 -10.324219 v -17.351562 c 0 -5.703125 4.621094 -10.324219 10.324219 -10.324219 z m 0 0" fill="#b6d1f2"/>
                    <path d="m 111 16 c -2.859375 0 -5.5 -1.523438 -6.929688 -4 c -1.425781 -2.476562 -1.425781 -5.523438 0 -8 c 1.429688 -2.476562 4.070313 -4 6.929688 -4" fill="#bbd6f6"/>
                    <path d="m 103 8 h 8 v 16 h -8 z m 0 0" fill="#99c1f1"/>
                    <path d="m 96 8 h 18 c 2.210938 0 4 1.789062 4 4 v 6 c 0 2.210938 -1.789062 4 -4 4 h -18 c -2.207031 0 -4 -1.789062 -4 -4 v -6 c 0 -2.210938 1.792969 -4 4 -4 z m 0 0" fill="#e9eef4"/>
                    <path d="m 100 16 c -2.859375 0 -5.5 -1.523438 -6.929688 -4 c -1.425781 -2.476562 -1.425781 -5.523438 0 -8 c 1.429688 -2.476562 4.070313 -4 6.929688 -4" fill="#e9eef4"/>
                    <path d="m 92 16 v 21.675781 c 0 5.71875 -4.605469 10.324219 -10.324219 10.324219 h -53.675781 c -8.863281 0 -16 7.136719 -16 16 v 24 c 0 8.863281 7.136719 16 16 16 h 72 c 8.863281 0 16 -7.136719 16 -16 v -72 z m 0 0" fill="url(#b)"/>
                    <path d="m 92 8 h 13 v 16 h -13 z m 0 0" fill="#e9eef4"/>
                    <path d="m 104 14 h 22 v 6 c -11.335938 0.6875 -11.078125 8.476562 -17 8 h -5 z m 0 0" fill="#5e5c64"/>
                    <path d="m 118 14 c 0 1.378906 -1.117188 2.5 -2.5 2.5 c -1.378906 0 -2.5 -1.121094 -2.5 -2.5 s 1.121094 -2.5 2.5 -2.5 c 1.382812 0 2.5 1.121094 2.5 2.5 z m 0 0" fill="#e9eef4"/>
                    <path d="m 113 14 c 0 1.378906 -1.121094 2.5 -2.5 2.5 c -1.382812 0 -2.5 -1.121094 -2.5 -2.5 s 1.117188 -2.5 2.5 -2.5 c 1.378906 0 2.5 1.121094 2.5 2.5 z m 0 0" fill="#e9eef4"/>
                    <path d="m 108 14 c 0 1.378906 -1.117188 2.5 -2.5 2.5 c -1.378906 0 -2.5 -1.121094 -2.5 -2.5 s 1.121094 -2.5 2.5 -2.5 c 1.382812 0 2.5 1.121094 2.5 2.5 z m 0 0" fill="#e9eef4"/>
                </g>
            </g>
        </g>
    </mask>
    <mask id="f">
        <g filter="url(#a)">
            <rect fill-opacity="0.8" height="184.32" width="184.32" x="-28.16" y="-28.16"/>
        </g>
    </mask>
    <linearGradient id="g" gradientTransform="matrix(0 0.37 -0.98462 0 295.38501 -30.360001)" gradientUnits="userSpaceOnUse" x1="300" x2="428" y1="235" y2="235">
        <stop offset="0" stop-color="#f9f06b"/>
        <stop offset="1" stop-color="#f5c211"/>
    </linearGradient>
    <clipPath id="h">
        <rect height="128" width="128"/>
    </clipPath>
    <clipPath id="i">
        <rect height="128" width="128"/>
    </clipPath>
    <path d="m 2 66 h 24 v 12 h -24 z m 0 0" fill="#99c1f1"/>
    <path d="m 12.324219 56 h 3.351562 c 5.703125 0 10.324219 4.621094 10.324219 10.324219 v 1.351562 c 0 5.703125 -4.621094 10.324219 -10.324219 10.324219 h -3.351562 c -5.703125 0 -10.324219 -4.621094 -10.324219 -10.324219 v -1.351562 c 0 -5.703125 4.621094 -10.324219 10.324219 -10.324219 z m 0 0" fill="#99c1f1"/>
    <g fill="#5e5c64">
        <path d="m 82 101 h 8 v 23 h -8 z m 0 0"/>
        <path d="m 100 101 h 8 v 23 h -8 z m 0 0"/>
        <path d="m 20 101 h 8 v 23 h -8 z m 0 0"/>
        <path d="m 38 101 h 8 v 23 h -8 z m 0 0"/>
    </g>
    <path d="m 40.324219 80 h 3.351562 c 5.703125 0 10.324219 4.621094 10.324219 10.324219 v 17.351562 c 0 5.703125 -4.621094 10.324219 -10.324219 10.324219 h -3.351562 c -5.703125 0 -10.324219 -4.621094 -10.324219 -10.324219 v -17.351562 c 0 -5.703125 4.621094 -10.324219 10.324219 -10.324219 z m 0 0" fill="#6b9bd2"/>
    <path d="m 102.324219 80 h 3.351562 c 5.703125 0 10.324219 4.621094 10.324219 10.324219 v 17.351562 c 0 5.703125 -4.621094 10.324219 -10.324219 10.324219 h -3.351562 c -5.703125 0 -10.324219 -4.621094 -10.324219 -10.324219 v -17.351562 c 0 -5.703125 4.621094 -10.324219 10.324219 -10.324219 z m 0 0" fill="#6b9bd2"/>
    <path d="m 40.324219 76 h 3.351562 c 5.703125 0 10.324219 4.621094 10.324219 10.324219 v 17.351562 c 0 5.703125 -4.621094 10.324219 -10.324219 10.324219 h -3.351562 c -5.703125 0 -10.324219 -4.621094 -10.324219 -10.324219 v -17.351562 c 0 -5.703125 4.621094 -10.324219 10.324219 -10.324219 z m 0 0" fill="#82adde"/>
    <path d="m 102.324219 76 h 3.351562 c 5.703125 0 10.324219 4.621094 10.324219 10.324219 v 17.351562 c 0 5.703125 -4.621094 10.324219 -10.324219 10.324219 h -3.351562 c -5.703125 0 -10.324219 -4.621094 -10.324219 -10.324219 v -17.351562 c 0 -5.703125 4.621094 -10.324219 10.324219 -10.324219 z m 0 0" fill="#82adde"/>
    <path d="m 22.324219 80 h 3.351562 c 5.703125 0 10.324219 4.621094 10.324219 10.324219 v 17.351562 c 0 5.703125 -4.621094 10.324219 -10.324219 10.324219 h -3.351562 c -5.703125 0 -10.324219 -4.621094 -10.324219 -10.324219 v -17.351562 c 0 -5.703125 4.621094 -10.324219 10.324219 -10.324219 z m 0 0" fill="#99c1f1"/>
    <path d="m 84.324219 80 h 3.351562 c 5.703125 0 10.324219 4.621094 10.324219 10.324219 v 17.351562 c 0 5.703125 -4.621094 10.324219 -10.324219 10.324219 h -3.351562 c -5.703125 0 -10.324219 -4.621094 -10.324219 -10.324219 v -17.351562 c 0 -5.703125 4.621094 -10.324219 10.324219 -10.324219 z m 0 0" fill="#99c1f1"/>
    <path d="m 28 58 h 72 c 8.835938 0 16 7.164062 16 16 v 18 c 0 8.835938 -7.164062 16 -16 16 h -72 c -8.835938 0 -16 -7.164062 -16 -16 v -18 c 0 -8.835938 7.164062 -16 16 -16 z m 0 0" fill="#99c1f1"/>
    <path d="m 22.324219 76 h 3.351562 c 5.703125 0 10.324219 4.621094 10.324219 10.324219 v 17.351562 c 0 5.703125 -4.621094 10.324219 -10.324219 10.324219 h -3.351562 c -5.703125 0 -10.324219 -4.621094 -10.324219 -10.324219 v -17.351562 c 0 -5.703125 4.621094 -10.324219 10.324219 -10.324219 z m 0 0" fill="#b6d1f2"/>
    <path d="m 84.324219 76 h 3.351562 c 5.703125 0 10.324219 4.621094 10.324219 10.324219 v 17.351562 c 0 5.703125 -4.621094 10.324219 -10.324219 10.324219 h -3.351562 c -5.703125 0 -10.324219 -4.621094 -10.324219 -10.324219 v -17.351562 c 0 -5.703125 4.621094 -10.324219 10.324219 -10.324219 z m 0 0" fill="#b6d1f2"/>
    <path d="m 111 16 c -2.859375 0 -5.5 -1.523438 -6.929688 -4 c -1.425781 -2.476562 -1.425781 -5.523438 0 -8 c 1.429688 -2.476562 4.070313 -4 6.929688 -4" fill="#bbd6f6"/>
    <path d="m 103 8 h 8 v 16 h -8 z m 0 0" fill="#99c1f1"/>
    <path d="m 96 8 h 18 c 2.210938 0 4 1.789062 4 4 v 6 c 0 2.210938 -1.789062 4 -4 4 h -18 c -2.207031 0 -4 -1.789062 -4 -4 v -6 c 0 -2.210938 1.792969 -4 4 -4 z m 0 0" fill="#e9eef4"/>
    <path d="m 100 16 c -2.859375 0 -5.5 -1.523438 -6.929688 -4 c -1.425781 -2.476562 -1.425781 -5.523438 0 -8 c 1.429688 -2.476562 4.070313 -4 6.929688 -4" fill="#e9eef4"/>
    <path d="m 92 16 v 21.675781 c 0 5.71875 -4.605469 10.324219 -10.324219 10.324219 h -53.675781 c -8.863281 0 -16 7.136719 -16 16 v 24 c 0 8.863281 7.136719 16 16 16 h 72 c 8.863281 0 16 -7.136719 16 -16 v -72 z m 0 0" fill="url(#b)"/>
    <path d="m 92 8 h 13 v 16 h -13 z m 0 0" fill="#e9eef4"/>
    <path d="m 104 14 h 22 v 6 c -11.335938 0.6875 -11.078125 8.476562 -17 8 h -5 z m 0 0" fill="#5e5c64"/>
    <path d="m 118 14 c 0 1.378906 -1.117188 2.5 -2.5 2.5 c -1.378906 0 -2.5 -1.121094 -2.5 -2.5 s 1.121094 -2.5 2.5 -2.5 c 1.382812 0 2.5 1.121094 2.5 2.5 z m 0 0" fill="#e9eef4"/>
    <path d="m 113 14 c 0 1.378906 -1.121094 2.5 -2.5 2.5 c -1.382812 0 -2.5 -1.121094 -2.5 -2.5 s 1.117188 -2.5 2.5 -2.5 c 1.378906 0 2.5 1.121094 2.5 2.5 z m 0 0" fill="#e9eef4"/>
    <path d="m 108 14 c 0 1.378906 -1.117188 2.5 -2.5 2.5 c -1.378906 0 -2.5 -1.121094 -2.5 -2.5 s 1.121094 -2.5 2.5 -2.5 c 1.382812 0 2.5 1.121094 2.5 2.5 z m 0 0" fill="#e9eef4"/>
    <g mask="url(#e)">
        <g clip-path="url(#i)">
            <g mask="url(#f)">
                <g clip-path="url(#h)">
                    <path d="m 128 80.640625 v 47.359375 h -128 v -47.359375 z m 0 0" fill="url(#g)"/>
                    <path d="m 13.308594 80.640625 l 47.355468 47.359375 h 21.214844 l -47.359375 -47.359375 z m 42.421875 0 l 47.363281 47.359375 h 21.214844 l -47.363282 -47.359375 z m 42.429687 0 l 29.839844 29.839844 v -21.210938 l -8.628906 -8.628906 z m -98.160156 7.90625 v 21.214844 l 18.238281 18.238281 h 21.214844 z m 0 0"/>
                </g>
            </g>
        </g>
    </g>
</svg>
